<svg xmlns="http://www.w3.org/2000/svg" width="112" height="32" fill="currentColor" class="hidden md:block"><path d="M99.097 17.992c.932-3.622 3.335-4.926 5.272-4.926 2.134 0 4.218 1.231 4.488 4.926h-9.76Zm6.179 13.935c2.821 0 4.758-.965 6.205-2.076l-.442-.628c-1.348.99-2.991 1.69-5.1 1.69-3.826 0-7.21-2.294-7.21-9.08 0-1.305.098-2.464.196-2.923h12.703c-.809-4.902-3.924-6.69-7.259-6.69-3.874 0-8.877 3.381-8.877 9.733 0 6.762 4.953 9.974 9.784 9.974Zm-22.438-.313h6.646v-.677c-1.84-.434-1.888-1.014-1.888-5.917v-6.858l2.084-2.246c.687-.773 1.005-1.015 1.618-1.015.859 0 1.472.773 2.502.773.956 0 1.496-.773 1.496-1.86 0-.845-.613-1.425-1.692-1.425-1.423 0-2.257.773-3.924 2.56l-2.085 2.222v-4.95l-4.806 2.535v.7c1.717.146 1.717.266 1.717 5.531v4.033c0 4.903-.05 5.483-1.668 5.917v.677ZM68.664 17.992c.932-3.622 3.335-4.926 5.272-4.926 2.134 0 4.218 1.231 4.488 4.926h-9.76Zm6.18 13.935c2.82 0 4.757-.965 6.204-2.076l-.442-.628c-1.348.99-2.991 1.69-5.1 1.69-3.826 0-7.21-2.294-7.21-9.08 0-1.305.098-2.464.196-2.923h12.703c-.81-4.902-3.924-6.69-7.259-6.69-3.874 0-8.877 3.381-8.877 9.733 0 6.762 4.954 9.974 9.785 9.974ZM39.899 17.606c1.152 0 2.035-.87 2.035-2.005 0-1.11-.883-1.98-2.035-1.98-1.128 0-1.987.87-1.987 1.98 0 1.136.859 2.005 1.987 2.005Zm0 14.394c1.152 0 2.035-.821 2.035-1.956s-.883-1.98-2.035-1.98c-1.128 0-1.987.845-1.987 1.98S38.771 32 39.9 32Zm-13.635-.845c-3.114 0-5.861-2.415-5.861-8.96 0-6.521 2.747-9.154 5.86-9.154 3.164 0 5.936 2.633 5.936 9.154 0 6.545-2.772 8.96-5.935 8.96Zm0 .797c4.12 0 9.22-3.454 9.22-9.757 0-6.304-5.1-9.975-9.22-9.975-4.07 0-9.172 3.671-9.172 9.975 0 6.303 5.101 9.757 9.172 9.757Zm-16.725-.073c2.894 0 4.979-1.087 6.254-2.68l-.417-.508c-1.202 1.305-2.943 2.174-5.175 2.174-4.144 0-6.989-2.56-6.989-9.08 0-6.304 3.041-8.671 6.45-8.671 1.52 0 2.526.555 2.771 1.521.147.628.392 1.812 1.643 1.812 1.005 0 1.619-.652 1.619-1.667 0-1.714-3.017-2.511-6.082-2.511C5.15 12.269 0 16.012 0 22c0 6.183 4.537 9.878 9.54 9.878Zm35.068-.265h6.548v-.677c-1.766-.434-1.815-1.014-1.815-5.917v-7.39l1.373-1.232c2.453-2.221 3.924-2.898 5.248-2.898 1.668 0 2.673.966 2.673 3.55v7.97c0 4.903-.074 5.483-1.84 5.917v.677h6.573v-.677c-1.643-.434-1.643-1.014-1.643-5.917v-7.8c0-3.502-1.815-4.903-4.856-4.903-1.937 0-3.825.966-6.155 3.115l-1.373 1.232V0l-4.758 2.415v.652c1.668.073 1.668.193 1.668 4.951V25.02c0 4.903-.049 5.483-1.643 5.917v.677Z"/></svg>