<svg xmlns="http://www.w3.org/2000/svg" width="180" height="39" fill="none"><path fill="#F8B133" d="M34.504 2.455v33.77c0 1.137-.92 2.057-2.056 2.057H2.061c-1.78 0-2.721-2.108-1.529-3.435L30.92 1.081c1.261-1.4 3.585-.51 3.585 1.374Z"/><path fill="#D39126" d="M38.62 35.83V2.06c0-1.137.92-2.057 2.056-2.057h30.387c1.78 0 2.721 2.108 1.53 3.434L42.204 37.204c-1.26 1.4-3.585.51-3.585-1.374Z"/><path fill="#F8B133" d="M38.62 2.062v34.164c0 1.136.92 2.056 2.056 2.056h34.158c1.831 0 2.751-2.216 1.456-3.512L42.132.606C40.836-.69 38.62.23 38.62 2.062Z"/><path fill="#020419" d="M89.283 23.56h-4.05l-.649 1.917h-2.767l3.926-10.85h3.06l3.927 10.85h-2.798l-.649-1.917Zm-.68-2.04-1.345-3.972-1.33 3.972h2.675ZM96.568 14.039v11.438h-2.643V14.039h2.643ZM106.614 21.025c0 .248-.016.505-.047.773h-5.981c.041.536.211.948.51 1.237.309.278.685.417 1.128.417.66 0 1.118-.278 1.376-.835h2.813a3.81 3.81 0 0 1-.788 1.53c-.371.454-.84.81-1.407 1.067-.567.258-1.2.387-1.901.387-.845 0-1.597-.18-2.257-.541a3.848 3.848 0 0 1-1.546-1.546c-.37-.67-.556-1.453-.556-2.35 0-.896.18-1.68.54-2.349a3.847 3.847 0 0 1 1.547-1.546c.659-.36 1.416-.54 2.272-.54.834 0 1.576.175 2.226.525.649.35 1.154.85 1.514 1.5.371.648.557 1.406.557 2.271Zm-2.705-.695c0-.454-.155-.814-.464-1.082-.309-.268-.695-.402-1.159-.402-.443 0-.819.129-1.128.386-.299.258-.485.624-.557 1.098h3.308ZM113.109 25.477l-1.654-2.396-1.391 2.396h-2.86l2.845-4.405-2.922-4.22h2.968l1.654 2.38 1.391-2.38H116l-2.891 4.343 2.968 4.282h-2.968ZM118.425 15.956c-.464 0-.845-.134-1.144-.402a1.361 1.361 0 0 1-.433-1.02c0-.413.144-.753.433-1.02.299-.279.68-.418 1.144-.418.453 0 .824.14 1.112.417.299.268.449.608.449 1.02 0 .402-.15.742-.449 1.02-.288.268-.659.402-1.112.402Zm1.313.896v8.625h-2.643v-8.625h2.643ZM125.163 25.6c-.753 0-1.422-.128-2.01-.386-.587-.257-1.051-.608-1.391-1.05a2.824 2.824 0 0 1-.572-1.516h2.612c.031.3.17.541.418.727.247.185.551.278.912.278.329 0 .582-.062.757-.185.186-.134.278-.304.278-.51 0-.248-.128-.428-.386-.541-.258-.124-.675-.258-1.252-.402a12.747 12.747 0 0 1-1.546-.449 2.776 2.776 0 0 1-1.066-.757c-.299-.35-.449-.82-.449-1.407 0-.494.134-.943.402-1.344.279-.413.68-.737 1.206-.974.536-.237 1.17-.356 1.901-.356 1.082 0 1.932.268 2.551.804.628.536.989 1.247 1.082 2.133h-2.443a1.04 1.04 0 0 0-.402-.71c-.216-.176-.504-.264-.865-.264-.309 0-.546.062-.711.186a.547.547 0 0 0-.247.479c0 .247.128.433.386.556.268.124.68.248 1.237.372.638.164 1.159.33 1.561.494a2.54 2.54 0 0 1 1.051.773c.309.35.469.824.479 1.422 0 .505-.144.958-.433 1.36-.278.392-.685.7-1.221.928-.526.226-1.139.34-1.839.34ZM139.84 25.477l-3.648-4.792v4.792h-2.643v-10.85h2.643v4.76l3.617-4.76h3.107l-4.205 5.316 4.359 5.534h-3.23ZM146.969 14.039v11.438h-2.643V14.039h2.643ZM150.214 15.956c-.464 0-.845-.134-1.144-.402a1.364 1.364 0 0 1-.432-1.02c0-.413.144-.753.432-1.02.299-.279.68-.418 1.144-.418.454 0 .825.14 1.113.417.299.268.448.608.448 1.02 0 .402-.149.742-.448 1.02-.288.268-.659.402-1.113.402Zm1.314.896v8.625h-2.643v-8.625h2.643ZM156.952 25.6c-.752 0-1.422-.128-2.009-.386-.588-.257-1.051-.608-1.391-1.05a2.824 2.824 0 0 1-.572-1.516h2.612c.031.3.17.541.417.727.248.185.552.278.912.278.33 0 .583-.062.758-.185.185-.134.278-.304.278-.51 0-.248-.129-.428-.386-.541-.258-.124-.675-.258-1.253-.402a12.726 12.726 0 0 1-1.545-.449 2.78 2.78 0 0 1-1.067-.757c-.299-.35-.448-.82-.448-1.407 0-.494.134-.943.402-1.344.278-.413.68-.737 1.206-.974.535-.237 1.169-.356 1.901-.356 1.082 0 1.932.268 2.55.804.629.536.989 1.247 1.082 2.133h-2.442a1.04 1.04 0 0 0-.402-.71c-.216-.176-.505-.264-.866-.264-.309 0-.546.062-.711.186a.55.55 0 0 0-.247.479c0 .247.129.433.387.556.267.124.68.248 1.236.372.639.164 1.159.33 1.561.494.402.155.753.412 1.051.773.309.35.469.824.48 1.422 0 .505-.145.958-.433 1.36-.279.392-.686.7-1.221.928-.526.226-1.139.34-1.84.34ZM161.537 21.165c0-.897.18-1.68.541-2.35a3.876 3.876 0 0 1 1.53-1.546c.66-.36 1.412-.54 2.257-.54 1.082 0 1.984.283 2.705.85.732.566 1.211 1.365 1.438 2.395h-2.814c-.237-.66-.695-.989-1.375-.989-.485 0-.871.19-1.16.572-.288.371-.432.907-.432 1.608 0 .7.144 1.241.432 1.623.289.37.675.556 1.16.556.68 0 1.138-.33 1.375-.99h2.814c-.227 1.01-.706 1.804-1.438 2.381-.732.577-1.633.866-2.705.866-.845 0-1.597-.18-2.257-.541a3.877 3.877 0 0 1-1.53-1.546c-.361-.67-.541-1.453-.541-2.35ZM176.723 16.76c.989 0 1.783.329 2.38.988.598.65.897 1.546.897 2.69v5.039h-2.628v-4.683c0-.578-.149-1.026-.448-1.345-.299-.32-.701-.48-1.206-.48s-.906.16-1.205.48c-.299.32-.449.767-.449 1.345v4.683h-2.643V14.039h2.643v3.972a2.825 2.825 0 0 1 1.098-.912c.464-.226.984-.34 1.561-.34Z"/></svg>